<svg
  class="img-fluid"
  id="outputsvg"
  xmlns="http://www.w3.org/2000/svg"
  width="1280"
  height="1280"
  viewBox="0 0 12800 12800"
>
  <g
    id="lgBITieOA2sv6OAr4xn7Bb"
    fill="rgb(0,0,0)"
    style="transform: none;"
  >
      <g style="transform: none;">
          <path id="p12ap67hYk" d="M4680 9686 c-124 -35 -223 -133 -276 -272 -23 -59 -28 -89 -32 -204 -5 -158 14 -257 68 -354 42 -74 135 -157 208 -186 69 -27 214 -38 290 -21 163 35 281 156 327 336 19 74 19 266 1 353 -31 144 -125 269 -246 326 -59 28 -75 31 -180 33 -71 1 -132 -3 -160 -11z m245 -135 c134 -63 215 -210 215 -389 0 -178 -108 -347 -247 -387 -92 -27 -164 -4 -253 81 -40 38 -67 76 -91 127 -33 69 -34 77 -34 187 0 96 4 124 23 172 33 82 81 147 136 185 88 61 160 68 251 24z"></path>
          <path id="pURxBPfWk" d="M3762 9173 l3 -508 265 0 265 0 0 55 0 55 -202 3 -203 2 0 165 0 165 160 0 160 0 6 24 c3 13 4 37 2 52 l-3 29 -162 3 -163 2 0 230 0 230 -65 0 -65 0 2 -507z"></path>
          <path id="p1AclW5DSa" d="M5462 9173 l3 -508 195 1 c223 1 281 12 350 71 56 48 81 101 87 187 10 132 -22 219 -103 281 l-41 31 104 182 c83 147 103 190 103 222 l0 40 -62 0 -63 0 -28 -53 c-16 -28 -66 -118 -110 -199 l-82 -147 -112 -1 -113 0 0 200 0 200 -65 0 -65 0 2 -507z m335 -28 c100 -30 167 -103 166 -181 -1 -47 -39 -111 -81 -138 -48 -30 -123 -46 -217 -46 l-75 0 0 190 0 190 78 0 c43 0 101 -7 129 -15z"></path>
          <path id="p737b99jp" d="M6662 9173 l3 -508 60 0 60 0 5 450 5 450 230 5 230 5 3 53 3 52 -301 0 -300 0 2 -507z"></path>
          <path id="pjn0ZjzdI" d="M7382 9173 l3 -508 63 -3 62 -3 0 511 0 510 -65 0 -65 0 2 -507z"></path>
          <path id="pwHwiJg8g" d="M7765 9668 c-3 -7 -4 -236 -3 -508 l3 -495 265 0 265 0 0 55 0 55 -203 3 -202 2 2 163 3 162 160 5 160 5 3 52 3 52 -163 3 -163 3 -3 228 -2 227 -61 0 c-38 0 -61 -4 -64 -12z"></path>
          <path id="p11mQneKtf" d="M8442 9173 l3 -508 272 -3 272 -2 6 34 c4 18 5 44 3 57 l-3 24 -212 3 -213 2 0 160 0 160 168 2 167 3 3 58 3 57 -171 0 -170 0 0 175 0 175 228 2 227 3 0 50 0 50 -293 3 -292 2 2 -507z"></path>
          <path id="pLuxR6VlF" d="M6461 8148 c-4 -13 -11 -45 -15 -73 -4 -27 -16 -104 -26 -170 -114 -723 -106 -644 -145 -1390 -8 -154 -19 -388 -25 -520 -7 -132 -13 -244 -14 -250 -2 -5 -15 13 -29 42 -31 60 -69 93 -108 93 -26 0 -28 4 -34 48 -4 28 -21 68 -42 100 -37 58 -269 288 -508 506 -144 131 -172 165 -210 257 -7 18 -19 25 -46 27 -65 5 -66 -2 -31 -241 30 -207 32 -215 85 -332 30 -66 72 -166 92 -222 35 -95 46 -112 147 -234 61 -72 137 -151 171 -177 34 -25 87 -72 118 -103 31 -31 77 -70 102 -86 l47 -29 -66 4 c-60 4 -66 3 -71 -17 -6 -22 -6 -22 -37 7 -43 41 -138 103 -221 145 -38 19 -96 55 -128 80 -53 41 -63 45 -135 52 -42 4 -104 18 -136 31 -33 13 -76 24 -95 24 -30 0 -38 -5 -49 -29 l-13 -29 -66 44 c-36 23 -77 45 -92 48 -14 3 -102 19 -196 37 l-170 32 -71 69 c-66 65 -73 69 -110 66 -37 -3 -39 -5 -42 -40 -3 -31 7 -51 64 -135 90 -130 150 -199 259 -295 95 -85 307 -242 346 -257 13 -5 54 -23 92 -40 49 -22 115 -39 240 -61 94 -17 188 -35 207 -40 46 -11 234 -30 334 -33 l79 -2 -104 -56 -104 -56 -3 -47 c-3 -49 -2 -49 -83 -60 -86 -11 -173 -118 -208 -254 -16 -63 -16 -64 -67 -81 -75 -25 -96 -42 -126 -103 -17 -33 -48 -72 -78 -97 -46 -39 -50 -46 -50 -86 0 -41 2 -45 45 -68 24 -14 58 -28 74 -32 36 -8 303 21 386 42 167 41 148 29 360 231 239 229 271 274 367 512 9 22 14 8 44 -107 19 -73 51 -167 72 -210 34 -72 40 -78 72 -83 33 -5 35 -8 51 -69 16 -63 17 -65 95 -123 43 -32 113 -72 154 -89 41 -17 95 -42 119 -56 84 -49 300 -102 414 -103 37 0 37 0 37 40 0 43 -22 103 -97 260 -39 82 -51 99 -91 125 -45 29 -46 31 -44 76 l3 47 -101 98 c-56 54 -127 116 -158 138 -32 21 -77 55 -101 75 l-43 35 48 16 49 15 83 -43 c142 -75 291 -102 568 -102 165 0 177 1 296 34 72 20 164 54 216 80 l92 46 0 39 c0 28 -10 54 -34 91 -29 44 -46 57 -126 97 -119 58 -207 83 -295 83 -62 0 -159 -17 -207 -35 -14 -6 -18 -2 -18 15 0 21 -3 22 -52 16 -29 -4 -102 -11 -163 -15 -60 -5 -135 -16 -165 -25 -30 -9 -75 -16 -100 -15 -38 0 -24 6 95 40 77 21 185 51 240 65 200 51 510 220 660 360 33 30 78 69 100 86 32 25 60 67 126 192 86 160 111 232 113 321 1 38 0 40 -32 43 -44 4 -98 -37 -123 -93 -28 -64 -104 -109 -248 -149 -129 -35 -169 -59 -197 -119 -13 -28 -22 -36 -33 -31 -9 4 -46 9 -83 12 l-67 4 -68 -53 c-137 -108 -200 -169 -207 -199 -5 -26 -10 -30 -40 -30 -55 0 -114 -32 -222 -118 -97 -77 -142 -107 -149 -100 -1 2 50 48 114 103 l116 101 3 61 c4 78 29 103 103 103 l49 0 57 88 c157 242 195 330 277 642 23 88 56 349 56 448 l0 42 -44 0 -44 0 -79 -142 c-69 -125 -92 -156 -191 -262 -173 -184 -231 -268 -263 -379 l-26 -91 -39 2 c-21 1 -66 -6 -99 -16 l-60 -18 -51 -177 c-28 -97 -52 -178 -55 -180 -2 -2 -31 -9 -64 -17 l-59 -15 -24 -63 c-13 -35 -26 -62 -27 -60 -2 2 1 84 6 183 4 99 13 286 19 415 6 129 17 354 25 500 18 317 34 821 37 1165 l3 250 -38 3 c-31 3 -38 0 -46 -20z m-40 -1168 c-7 -140 -18 -385 -26 -545 -8 -159 -20 -402 -26 -540 -11 -245 -20 -307 -34 -228 -6 40 0 174 35 803 11 190 22 413 25 495 6 160 27 351 33 300 2 -16 -1 -145 -7 -285z m1014 -333 c-45 -170 -110 -358 -145 -422 -19 -33 -67 -111 -107 -172 l-73 -113 -42 0 c-29 0 -54 -8 -80 -26 -36 -26 -38 -29 -38 -83 0 -31 -4 -61 -8 -67 -4 -6 -79 -73 -167 -149 -174 -150 -313 -251 -301 -219 28 76 108 271 114 281 4 7 34 19 66 27 33 9 61 17 63 19 2 2 25 82 52 177 50 175 69 211 84 165 8 -22 15 -25 57 -25 89 0 93 4 126 132 36 142 76 204 249 389 69 74 136 151 148 172 32 56 32 30 2 -86z m-1806 -381 c128 -121 257 -251 286 -288 50 -64 53 -70 64 -157 6 -50 14 -97 17 -106 9 -23 81 -20 96 4 11 18 15 15 45 -37 69 -118 136 -283 121 -298 -6 -6 -99 41 -183 91 -44 26 -111 78 -150 115 -38 37 -97 87 -130 112 -33 25 -105 100 -159 166 -94 114 -102 126 -156 263 -32 79 -74 179 -94 222 -20 43 -40 103 -44 132 l-9 54 31 -25 c17 -15 136 -126 265 -248z m2402 -277 c-33 -60 -58 -88 -161 -176 -150 -128 -247 -194 -348 -237 -42 -18 -109 -49 -149 -69 -39 -20 -89 -41 -110 -46 -21 -5 -90 -23 -153 -40 -262 -71 -392 -103 -396 -98 -2 2 41 21 97 42 86 33 118 52 216 128 l114 90 30 -37 c24 -28 38 -36 64 -36 37 0 40 6 65 118 14 59 36 84 174 192 68 54 81 61 101 52 15 -7 26 -25 34 -56 11 -44 13 -46 49 -46 l38 0 38 89 c46 111 68 129 201 165 55 15 105 29 110 31 25 9 23 1 -14 -66z m-3327 -308 c110 -19 136 -27 184 -58 31 -19 76 -57 100 -84 38 -43 49 -49 83 -49 41 0 45 5 51 75 2 24 7 29 23 27 11 -2 60 -9 108 -15 75 -10 94 -17 127 -44 20 -18 84 -57 141 -88 156 -85 233 -147 244 -195 7 -33 59 -60 114 -60 43 0 51 10 51 66 0 41 6 42 115 14 43 -11 100 -20 126 -20 90 0 70 -17 -74 -64 -135 -44 -353 -41 -590 8 -61 13 -150 29 -197 36 -145 21 -274 80 -431 197 -110 83 -350 296 -314 280 6 -3 68 -15 139 -26z m3157 -541 c47 -24 91 -51 98 -61 10 -17 4 -22 -47 -48 -31 -16 -116 -45 -187 -64 l-130 -36 -180 8 c-249 12 -350 40 -495 138 -41 27 -120 32 -140 8 -21 -25 -56 -17 -109 25 -28 22 -51 43 -51 47 0 3 89 3 198 0 185 -5 203 -4 297 19 55 13 117 24 138 24 37 0 37 0 37 -40 0 -39 1 -40 36 -40 19 0 67 14 107 31 40 17 103 39 141 48 66 17 72 17 135 1 36 -9 105 -36 152 -60z m-1606 -97 c-18 -54 -47 -132 -65 -173 -33 -78 -131 -234 -155 -247 -7 -5 -84 -75 -171 -158 -86 -82 -169 -158 -184 -168 -41 -26 -207 -65 -322 -76 -127 -12 -139 -8 -100 33 16 17 40 50 52 74 31 55 56 70 165 102 l90 26 3 36 c3 32 0 37 -27 46 -36 13 -35 11 -18 48 52 115 106 154 227 165 131 11 140 15 140 57 0 23 -8 44 -22 59 -12 13 -20 24 -17 26 29 24 152 80 210 96 61 17 81 29 125 72 43 42 63 58 101 78 1 1 -13 -43 -32 -96z m255 -75 c30 -25 73 -53 94 -62 22 -9 69 -40 105 -69 36 -30 88 -68 116 -86 27 -18 79 -65 115 -104 63 -68 65 -72 62 -117 l-4 -46 68 -52 c36 -29 71 -52 76 -52 5 0 31 -46 58 -102 37 -79 45 -104 34 -106 -21 -5 -171 46 -221 74 -23 14 -78 40 -122 58 -43 19 -112 59 -153 89 l-73 54 -29 108 -29 107 -40 -4 c-39 -4 -40 -3 -60 41 -26 58 -87 288 -87 326 0 30 1 30 18 9 9 -11 42 -41 72 -66z"></path>
          <path id="plH5J1Ath" d="M2815 5144 c-132 -107 -348 -282 -480 -389 -132 -107 -250 -203 -262 -214 -17 -14 -23 -30 -23 -60 0 -36 9 -51 78 -133 42 -51 115 -140 162 -198 146 -181 225 -250 340 -300 75 -33 255 -41 339 -15 75 23 186 98 237 162 69 85 89 147 89 288 0 186 -32 259 -220 490 -58 71 -105 133 -105 136 0 4 61 55 135 113 127 101 135 109 135 142 0 28 -12 50 -57 105 -87 106 -77 109 -368 -127z m-22 -416 c8 -13 47 -61 86 -108 100 -118 149 -193 167 -256 14 -50 14 -58 -2 -106 -31 -95 -153 -190 -244 -190 -80 -1 -189 80 -306 226 -21 27 -50 63 -64 80 -57 69 -63 56 67 159 65 52 152 122 193 156 41 33 77 61 81 61 4 0 14 -10 22 -22z"></path>
          <path id="pazvgZBrg" d="M9231 5053 c-40 -55 -50 -76 -51 -108 0 -32 5 -43 24 -55 25 -15 277 -209 286 -220 3 -3 124 -97 270 -209 146 -112 271 -209 278 -216 10 -9 -11 -42 -108 -163 -106 -134 -120 -157 -120 -190 0 -35 6 -43 58 -85 73 -60 118 -64 154 -15 12 18 57 76 98 128 97 121 243 306 366 463 54 67 114 143 135 169 31 36 39 55 39 86 0 35 -5 43 -57 86 -50 40 -63 46 -98 44 -32 -3 -44 -9 -65 -39 -23 -33 -94 -124 -186 -236 l-35 -43 -113 88 c-62 48 -202 157 -311 242 -109 85 -207 162 -219 170 -11 8 -67 50 -123 92 -136 104 -153 105 -222 11z"></path>
          <path id="pvyoI0avI" d="M8767 4381 c-50 -36 -336 -229 -614 -417 -99 -67 -102 -70 -103 -107 0 -28 11 -52 43 -100 24 -34 75 -107 112 -162 38 -55 89 -129 114 -165 25 -36 79 -115 120 -175 370 -540 343 -504 382 -505 26 0 52 10 85 33 27 18 159 108 294 199 135 91 281 190 325 220 76 52 80 56 83 96 3 35 -3 51 -38 102 -63 93 -56 95 -389 -130 -155 -104 -283 -190 -285 -190 -2 0 -43 57 -91 126 -85 122 -87 126 -69 143 11 10 105 76 209 146 105 71 209 141 233 157 38 26 42 34 42 70 0 29 -10 54 -36 94 -34 51 -38 54 -78 54 -38 0 -67 -16 -286 -164 -135 -91 -245 -164 -246 -163 0 1 -43 62 -94 135 -90 130 -92 134 -74 152 11 10 82 60 159 112 77 52 202 136 278 187 136 92 137 93 137 131 0 28 -11 55 -40 99 -38 57 -43 61 -79 61 -28 0 -52 -10 -94 -39z"></path>
          <path id="pXkFuxLnJ" d="M3894 4288 c-26 -53 -178 -327 -297 -538 -307 -544 -338 -610 -304 -638 38 -31 150 -82 180 -82 37 0 25 -19 224 340 29 52 56 101 61 109 7 12 22 7 83 -26 165 -89 504 -276 508 -279 2 -2 -41 -83 -95 -181 -130 -238 -134 -245 -134 -295 0 -43 1 -43 70 -80 45 -25 82 -38 107 -38 43 0 29 -18 153 205 42 77 177 319 299 538 181 323 222 404 219 430 -3 28 -12 37 -73 74 -51 31 -81 43 -111 43 -46 0 -22 35 -253 -380 -30 -52 -54 -96 -55 -97 -2 -2 -81 40 -177 93 -96 53 -225 123 -286 156 -62 33 -115 63 -118 67 -2 4 52 109 120 232 155 278 155 278 55 337 -54 33 -79 42 -114 42 -41 0 -47 -3 -62 -32z"></path>
          <path id="p6YuYUceC" d="M7815 3791 c-11 -5 -51 -17 -88 -26 -51 -13 -71 -23 -77 -39 -14 -38 -298 -628 -305 -635 -5 -5 -238 130 -247 143 -4 5 -19 55 -34 111 -14 55 -33 124 -41 153 l-14 52 -54 0 c-29 0 -83 -9 -120 -21 l-68 -21 6 -61 c3 -34 28 -143 55 -242 27 -99 73 -268 102 -375 121 -451 171 -634 176 -642 9 -14 76 -7 159 16 66 18 81 26 83 44 2 12 -13 86 -33 165 -39 152 -111 418 -121 451 -6 19 -6 19 27 -1 810 -490 767 -469 880 -438 30 8 71 20 92 26 34 9 37 12 37 47 -1 37 -1 37 -163 138 -89 56 -237 147 -329 203 l-167 102 36 77 c19 42 59 129 88 192 28 63 93 206 144 318 68 149 91 211 89 235 -3 31 -5 32 -48 34 -25 1 -54 -2 -65 -6z"></path>
          <path id="p1DT4r1OzP" d="M5573 3585 c-228 -64 -346 -224 -382 -516 -39 -318 -82 -724 -79 -756 l3 -38 85 -12 c102 -14 131 -15 146 -5 7 4 28 160 53 387 43 388 63 498 106 570 58 99 147 149 265 149 181 -1 308 -102 340 -268 10 -52 7 -94 -15 -291 -53 -468 -66 -591 -60 -611 5 -23 23 -28 157 -40 l77 -7 5 34 c3 19 15 108 26 199 64 532 74 731 45 845 -45 172 -165 290 -356 350 -76 24 -343 31 -416 10z"></path>
      </g>
  </g>
</svg>
